<?xml version="1.0" encoding="UTF-8"?><svg id="Layer_2" xmlns="http://www.w3.org/2000/svg" viewBox="0 0 527.32 633.56"><defs><style>.cls-1{fill:#858acf;}.cls-1,.cls-2,.cls-3,.cls-4{stroke-width:0px;}.cls-2{fill:#a689fd;}.cls-3{fill:#08191e;}.cls-4{fill:#1e1500;}</style></defs><g id="Layer_1-2"><path class="cls-2" d="M64.77,436.15c.5.46,1,.9,1.51,1.34-.33-.72-.81-1.11-1.51-1.34Z"/><path class="cls-4" d="M360.74,526.03s-.06-.06-.09-.1c-.03.02-.07.05-.1.07.06,0,.13.02.19.03Z"/><path class="cls-4" d="M203.37,560.51c-2.16-1.98-5.15-2.92-7.93-4.19,1.24,1.16,2.47,2.33,3.68,3.52,1.71,1.68,2.77,1.98,4.25.67Z"/><path class="cls-3" d="M527.32,222.45c-.01-.99-.03-1.98-.04-2.98,0-.34,0-.68,0-1.02-.34-3.37-2.15-4.95-5.59-5.03-3.32-.08-5.08,1.07-5.74,4.57-.64,3.45-2,6.78-3.19,10.11-6.89,19.3-19.06,34.89-34.12,48.43-2.3,2.07-4.51,4.32-7.96,5.6-1.44-9.1-2.93-17.91-5.38-26.51-2.51-8.81-5.69-17.38-9.18-25.83-.94-2.27.23-3.28,1.75-4.47,12.02-9.41,20.19-21.87,27.14-35.16,8.16-15.62,12.2-32.56,14.98-49.82,1.86-11.59,2.19-23.56.6-34.91-1.55-11.15-4.32-22.47-8.65-33.17-4.3-10.66-9.07-21.24-15.37-30.69-6.42-9.63-14.05-18.61-22.14-27.04-3.8-3.96-7.52-8-11.36-11.93-1.79-1.83-3.84-3.39-6.62-2.11-2.91,1.34-2.59,3.94-2.28,6.47.41,3.3.91,6.59,1.24,9.9,3.8,38.33-5.25,73.23-27.77,104.6-1.65,2.3-2.65,2.24-4.59.54-4.38-3.84-8.77-7.7-13.43-11.17-61.98-46.13-129.39-54.65-201.47-28.36-23.36,8.52-43.81,22.18-62.12,39-1.62,1.49-2.76,3.22-4.92.21-10.47-14.56-18.95-30.09-24.03-47.35-6.51-22.13-6.2-44.68-3.87-67.33.24-2.32.84-4.74-1.9-6.1-2.58-1.28-4.42.11-6.2,1.77-17.04,15.9-31.64,33.6-42.52,54.4-8.15,15.57-13.5,32.01-15.1,49.25-1.26,13.57-1.09,27.36.83,41.08,1.56,11.12,4.35,21.82,8.84,31.95,6.18,13.93,14.27,26.81,24.13,38.51,3.19,3.79,8.89,6.64,9.42,11.12.53,4.43-2.83,9.32-4.49,14.01-4.47,12.64-7.31,25.69-9.23,39.43-1.5-1-2.49-1.57-3.38-2.27-16.4-12.85-29.39-28.41-37.49-47.76-2.18-5.2-3.91-10.6-5.98-15.85-.61-1.54-1.08-3.11-3.58-3.18-5.82-.16-6.46.1-6.47,6.44C.01,254.12-.02,288.44.01,322.76c0,7.31,2.14,9.71,9.33,11.41,10.01,2.37,14.26,8.06,14.4,18.23.24,17.15-.74,34.33.63,51.45.71,8.82,5.5,16.22,11.9,21.77,7.66,6.65,17.24,9.96,27.46,10.75.6.05,1.08.13,1.5.26-.61-.56-1.21-1.12-1.79-1.71.58.58,1.19,1.15,1.79,1.71.7.23,1.18.63,1.51,1.34,10.56,9.16,23.66,15.21,32.69,26.95-9.03-11.74-22.14-17.78-32.69-26.95.17.37.31.83.42,1.39,2.84,14.32,5.86,28.62,11.67,42.12,8.05,18.67,18.31,36.04,30.91,52.03,24.47,31.05,52.69,58.74,78.96,88.17,2.16,2.42,4.81,4.07,8.08,4.62,18.89,3.14,37.85,5.8,56.97,6.95,22.73,1.38,45.13-2.39,67.6-4.88,10.11-1.12,17.72-5.91,24.5-13.54,17.03-19.17,34.77-37.72,52.09-56.64,30.84-33.7,54.37-71.22,61.56-117.13-10.78,6.57-22.55,12.35-32.07,21.87,9.52-9.52,21.29-15.3,32.07-21.87.15-.98.31-1.95.45-2.93.37-2.61,1.5-2.82,3.54-2.77,18.6.48,34.74-10.7,39.65-30.92.03-.34.07-.68.1-1.01,1.1-17.47.39-34.95.58-52.43.11-9.95,3.03-13.89,12.63-16.83,8.77-2.69,10.74-5.39,10.75-14.76.04-31.97.08-63.95.12-95.92,0-.34,0-.68,0-1.03ZM66.2,403.83c.03,3.11-.99,3.51-3.77,3.16-10.12-1.26-14.06-5.53-14.03-15.65.04-16.65.08-33.3.12-49.94-.61-13.3-10.39-18.1-20.87-21.48-4.54-1.46-5.75-3.26-5.58-7.73.35-9.4.11-18.83.11-29.42,2.08,2.6,3.48,4.31,4.82,6.06,9.67,12.55,22.14,21.38,36.73,27.24,1.89.76,2.54,1.48,2.52,3.42-.12,11.96-.15,23.92-.2,35.88.03,16.15-.02,32.3.15,48.45ZM368.39,178.92c49.84-17.96,76.91-54.97,87.43-105.5,1.19-5.71.86-11.74,1.25-17.82,1.74.62,1.88,1.82,2.27,2.84,8.41,13.63,13.54,28.54,15.47,44.29,5.48,44.61-8.24,82.36-41.9,112.46-8.28,7.41-17.88,12.56-28.97,14.81-6.13,1.24-11.45.62-16.15-3.79-2.65-2.49-5.6-4.67-7.68-7.73-8.19-10-12.87-21.53-15.02-34.2-.49-2.91.23-4.25,3.29-5.35ZM171.39,218.31c.28-2.56.77-4.21,3.84-4.62,23.73-3.2,43.01-14.93,59.87-31.35,12.46-12.13,21.46-26.53,28.58-42.75,5.78,11.33,11.5,22.16,19.34,31.75,16.78,20.53,36.99,35.69,63.36,41.52,10.22,2.26,10.37,2.25,10.55,12.89.35,21.5-8.18,39-24.36,52.93-2.49,2.14-5.1,4.15-7.79,6.34,10.84,4.78,37.12-1.55,52.12-19.72,2.35-3.81,4.02-8.38,7.21-11.24,3.72-3.33,7.98,1.13,12.16,1.43,13.56.97,23.78-1.17,35.64-8.51.14,4.53-.97,8.56-2.33,12.49-5.73,16.57-15.07,30.78-28.68,41.88-19.52,15.91-40.82,28.86-65.66,34.41-28.97,6.46-50.59-6.11-60.03-37.31-.71-2.2-1.33-4.43-2.15-6.6-2.23-5.9-2.6-10.05,4.32-14.33,9.74-6.02,10.3-19.77,2.91-29.19-7.29-9.3-19.92-10.83-29.3-3.55-9.27,7.19-10.58,20.33-3.04,30.32,1.41,1.87,2.89,4.1,5.04,4.69,4.73,1.29,3.82,4.27,3.06,7.55-.97,4.16-2.23,8.21-4,12.1-4.76,18.49-20.16,39.67-48.11,37.57-11.07-.83-21.71-3.17-31.7-7.94-19.9-9.49-39.01-20.28-53.99-36.89-11.06-12.26-19.4-26.11-22.49-42.65-.12-.62-.1-1.26-.19-2.48,6.53,3.44,12.66,6.57,19.64,7.67,8.56,1.35,16.88,1.02,25.04-1.92,1.66-.6,2.68-1.07,3.89,1.1,2.4,4.33,5.38,8.34,8.13,12.48,12.17,12.9,26.5,20.93,44.83,20.08,2-.09,4.01-.05,6.02-1.23-.64-1.84-2.48-2.44-3.82-3.46-20.97-16.03-30.81-36.91-27.93-63.45ZM320.65,537.05c2.03-9.86-.77-18.92-5-28.39,8.96-1.19,15.87-6.02,22.44-11.49,7.12-6.04,13.02-13.12,17.84-21.44,6.05,21.84-12.01,54.69-34.73,63.79-.53.74-1.27.66-1.52-.04-.35-.97.16-1.83,1.09-2.36l-.13-.08ZM329.79,479.84c-4.89,4.51-10.74,6.99-17.68,6.82-10.31-.24-20.63-.07-30.95-.08-11.04.48-22.09.68-33.14.16-12.46.42-24.93.38-37.37-.39-7.12-.44-12-5.26-16.54-10.2-6.22-6.78-10.44-14.95-15.36-22.63-3.66-5.7-7.13-11.52-10.95-17.7,9.56-1.77,17.9-5.16,26.24-10.11.26,9.17,2.63,17.04,7.65,24.11,5.29,7.44,12.23,11.49,21.44,11.43,5.92-.64,9.91-4.22,13.4-9.12,7.22,9.38,16.13,15.4,28.19,15.12,11.83-.28,20.76-6.08,28.14-15.74,2.17,5.28,6.34,7.92,11.33,9.49,16.02,1.87,27.39-15.01,28.95-26.88.32-2.42.39-4.88.62-7.89,8.23,4.86,16.77,8.16,26.94,9.74-10.43,15.08-17.61,31.59-30.91,43.86ZM208.22,539.4c-2.71-.44-4.47-1.55-6.05-3.03-22.85-13.98-31.85-34.94-30.48-61.21,4.56,7.22,9.61,14.02,15.65,20.02,5.32,3.67,10.19,8.01,16.15,10.7,2.87,1.3,5.7,2.75,9.53,2.68-4.89,9.96-7.1,19.98-4.8,30.84ZM312.07,439.5c-.69.81-.86,3-2.59.79-4.72-6.05-9.29-7.12-16.84-4.18-3.65,1.42-6.53,3.89-9.35,6.48-12.31,11.32-26.24,11.42-38.79.33-1.87-1.65-3.64-3.43-5.66-4.87-7.52-5.36-14.99-4.26-20.88,2.92-.09.11-.3.27-.37.23-.23-.11-.43-.31-.64-.47-.37-.44-.74-.87-1.1-1.31l.04.14c-5.79-7.14-5.73-14.89-2.05-22.8,2.69-5.78,7.07-10.4,11.59-15.36,5.17,6.23,10.76,11.87,17.8,17.86v-52.76c-.29-6.96-.68-13.91-3.29-20.5-.51-1.29-.04-2.76,1.15-3.48,9.94-6.01,17.14-14.55,22.52-25.26,5.67,10.66,12.83,19.46,22.74,25.73,1.49.95,1.31,1.95.98,3.35-1.67,6.95-2.59,14-2.68,21.16.09,14.6.19,29.21.27,43.81.01,2.14,0,4.28,0,7.52,5.99-4.61,10.91-9.14,14.92-14.49,2.1-2.81,3.27-2.49,5.39-.16,5.41,5.97,10.35,12.09,11.15,20.57.52,5.53-.51,10.53-4.32,14.75ZM57.34,84.31c2.48-8.87,5.75-17.69,11.66-25.13.28-.92.57-1.83,2.05-2.29.06,15.71,3.09,30.85,9.24,45.08,14.22,32.95,35.63,59.41,69.61,73.84,3.2,1.36,6.54,2.63,9.94,3.16,3.49.54,3.91,2.25,3.31,5.07-2.8,13.17-7.61,25.39-16.7,35.6-2.56,3.79-6.14,6.49-9.68,9.26-1.95,1.53-4.03,1.97-6.51,1.76-14.34-1.23-26.87-6.91-37.11-16.68-37.72-36-49.9-79.36-35.81-129.67ZM85.51,274.91c2.03,1.37,2.19,3.11,2.8,4.47,7.88,17.85,19.63,32.32,36.69,42.18,1.3.75,2.47,1.32,2.4,3.29-.55,14.41,4.65,26.98,12.63,38.63,12.98,15.53,29.67,19.91,48.91,15.9,8.49-1.77,15.3-7.02,22-12.25v.22c.15-.71.34-1.34,1.3-1,3.73,3.98,6.11,9.04,10.19,12.74,1.63,1.48.1,2.42-.64,3.3-18,21.51-39.86,35.21-68.95,35.65-36.91.56-60.42-30.55-61.37-62.47-.33-11.15-.18-22.32-.18-33.48,0-2.22-.06-4.05-2.14-5.67-2.86-2.22-2.83-5.84-3.27-9.13-1.4-10.57-.85-21.14-.34-32.37ZM85.55,403.39c1.47-.57,1.52.77,1.96,1.5,11.79,19.78,28.63,31.59,52.04,33,1.71.1,3.09.31,4.22,1.98,3.15,4.68,6.55,9.2,10.13,14.18-39.13,5.33-67.37-15.72-68.35-50.66ZM99.88,464.81l.32-.41c6.72,3.15,12.69,7.72,19.86,10.08,6.74,2.22,13.57,3.13,20.6,3.02,2.08-.03,3.79-.07,4.37,2.71,3.35,16.06,10.72,30.25,20.48,43.3.49.66.92,1.37,1.35,2.08.06.11-.05.32-.08.48-24.79,2.63-58.11-27.89-66.89-61.26ZM368.87,554.21c-14.36,15.95-28.77,31.85-43.14,47.8-2.76,3.06-6.68,2.39-10.07,3.03-6.82,1.29-13.76,1.92-20.87,2.85,1.23-12.47-2.98-22.82-13.25-30.22-9.76-7.03-20.38-7.71-31.12-2.4-11.04,5.46-17.26,14.53-17.62,26.9-.14,4.91-1.35,5.81-6.01,4.65-5.29-1.32-10.82-1.91-16.28-2.27-3.8-.25-6.38-1.71-8.93-4.48-14.95-16.31-30.1-32.45-46.12-49.67,9.81.59,17.86-1.21,25.55-4.48,2.05-.87,3.02-.05,4.29,1.14,1.55,1.45,3.11,2.88,4.68,4.3-.33-.79-.55-1.44-.55-1.44-9-7-16-15-22-24,6,9,13,17,22,24,0,0,.22.65.55,1.44,1.98,1.8,3.96,3.6,5.92,5.43,2.78,1.27,5.77,2.21,7.93,4.19.26-.23.53-.49.82-.82,5.7-6.51,11.5-12.94,17.9-18.8,4.57-4.19,9.63-7.63,14.83-10.95,1.91-1.22,3.84-1.76,6.08-1.75,13.66.01,27.32.04,40.98-.14,3.33-.05,5.68,1.62,8.11,3.31,11.57,8.02,21.55,17.8,30.78,28.33,2.09,2.39,3.2,2.48,5.41.32,4.76-4.66,9.8-9.02,14.67-13.57.5-.47.96-.91,1.46-1.23,5.75-5.4,11.61-10.82,15.58-18.76-3.97,7.94-9.83,13.36-15.58,18.76.75-.48,1.59-.65,2.81-.09,7.47,3.45,15.36,5.13,23.71,4.89-.1,1.96-1.58,2.7-2.51,3.73ZM428.24,463.07c-1.1,5.56-3.03,10.1-5.1,14.55-6.6,14.16-14.56,27.44-27.56,36.69-10.23,7.28-21.64,11.82-34.44,12.09,0,0-.02.01-.03.02.03.03.06.06.09.1-.06,0-.13-.02-.19-.03-.18.13-.37.26-.55.39v-.47c.19.03.37.05.55.08.03-.02.07-.05.1-.07-1.02-1.04.18-1.65.67-2.23,10.81-12.58,16.6-27.51,20.38-43.37.52-2.19,1.07-3.48,3.78-3.44,15.49.24,29.47-4.29,42.3-14.31ZM373.1,454.07c3.75-5.23,7.13-9.92,10.47-14.64,1.12-1.58,2.83-1.67,4.46-1.77,23.82-1.39,40.28-14.56,53.38-32.92,2.32,24.26-22.67,56.67-68.31,49.33ZM440.91,311.51c-5.33,13.21-3.18,26.36-3.65,39.53-.68,19.11-6.58,35.8-19.93,49.74-15.16,15.84-34.04,19.31-54.62,16.14-23.21-3.57-40.71-17.12-56.35-33.62-1.66-1.76-1.4-2.94.07-4.59,3.31-3.71,6.44-7.57,9.64-11.36.75-1.22,1.43-.83,2.35-.08,24.92,20.01,48.62,18.68,70.53-3.93,8.11-11.37,12.07-23.98,11.28-38-.09-1.57.12-2.83,1.7-3.76,18.49-10.95,31.84-26.33,39.77-46.49,1.29,12.29,3.79,25.08-.8,36.43ZM500.75,319.32c-10.59,3.5-19.11,9.34-21.83,21.08.05,18.28.22,36.56.1,54.84-.04,6.12-9.22,13.25-15.35,12.49-2.83-.35-1.63-2.51-1.64-3.84-.12-14.97-.11-29.93-.12-44.9,0-1.82.05-3.65.07-5.47-.11-11.48-.15-22.96-.38-34.43-.04-2.14.98-2.83,2.62-3.58,19.08-8.68,27.14-15.01,40.62-32.17,0,6.11,0,11.26,0,16.41,0,4.66-.25,9.33.01,13.98.19,3.26-1.11,4.59-4.1,5.58Z"/><path class="cls-1" d="M526.82,218.99c0-.34,0-.68,0-1.02.1.24.24.47.29.72.02.08-.18.2-.28.3Z"/><path class="cls-1" d="M526.86,222.99c0-.34,0-.68,0-1.03.11.24.25.48.31.73.02.07-.2.19-.3.29Z"/><path class="cls-1" d="M502.69,403.95c.03-.34.07-.68.1-1.01.08.25.19.49.23.75,0,.07-.21.18-.32.27Z"/><path class="cls-2" d="M151.82,265.89c12.17,12.9,26.5,20.93,44.83,20.08,2-.09,4.01-.05,6.02-1.23-.64-1.84-2.48-2.44-3.82-3.46-20.97-16.03-30.81-36.91-27.93-63.45.28-2.56.77-4.21,3.84-4.62,23.73-3.2,43.01-14.93,59.87-31.35,12.46-12.13,21.46-26.53,28.58-42.75,5.78,11.33,11.5,22.16,19.34,31.75,16.78,20.53,36.99,35.69,63.36,41.52,10.22,2.26,10.37,2.25,10.55,12.89.35,21.5-8.18,39-24.36,52.93-2.49,2.14-5.1,4.15-7.79,6.34,10.84,4.78,37.12-1.55,52.12-19.72,4.82,6.12,11.03,10.55,17.91,13.92,3.81,1.87,2.97,3.07.67,5.57-15.31,16.68-34.53,27-55.87,33.17-19.64,5.68-38.01,2.69-54.03-11.22-3.31-2.87-5.88-6.85-10.36-8.31-.71-2.2-1.33-4.43-2.15-6.6-2.23-5.9-2.6-10.05,4.32-14.33,9.74-6.02,10.3-19.77,2.91-29.19-7.29-9.3-19.92-10.83-29.3-3.55-9.27,7.19-10.58,20.33-3.04,30.32,1.41,1.87,2.89,4.1,5.04,4.69,4.73,1.29,3.82,4.27,3.06,7.55-.97,4.16-2.23,8.21-4,12.1-2.07.12-3.06,1.83-4.4,3.01-17.27,15.28-36.76,21.62-59.7,15.55-15.87-4.2-29.61-12.3-42.65-21.87-5.21-3.82-10.58-7.44-15.09-12.12-.91-.94-2.97-2.54-.24-3.22,9.15-2.26,15.43-8.75,22.3-14.41Z"/><path class="cls-2" d="M346.81,545.6c-1.22-.56-2.06-.39-2.81.09-1.49,1.4-2.98,2.8-4.42,4.24,1.44-1.44,2.93-2.84,4.42-4.24-.5.32-.96.76-1.46,1.23-4.87,4.55-9.91,8.91-14.67,13.57-2.2,2.16-3.32,2.07-5.41-.32-9.23-10.54-19.22-20.32-30.78-28.33-2.43-1.69-4.79-3.35-8.11-3.31-13.66.19-27.32.15-40.98.14-2.24,0-4.17.53-6.08,1.75-5.19,3.32-10.26,6.76-14.83,10.95-6.4,5.86-12.2,12.3-17.9,18.8-.29.33-.56.59-.82.82.61.56,1.16,1.18,1.61,1.94-.45-.75-1-1.38-1.61-1.94-1.47,1.31-2.54,1.01-4.25-.67-1.21-1.19-2.44-2.36-3.68-3.52-1.64-.75-3.2-1.61-4.46-2.87-.54-.54-1.07-1.64-1.45-2.56-1.57-1.43-3.13-2.86-4.68-4.3-1.27-1.19-2.24-2.01-4.29-1.14-7.69,3.27-15.74,5.07-25.55,4.48,16.02,17.21,31.17,33.35,46.12,49.67,2.55,2.78,5.13,4.23,8.93,4.48,5.46.36,10.99.95,16.28,2.27,4.66,1.16,5.87.26,6.01-4.65.35-12.37,6.58-21.44,17.62-26.9,10.73-5.31,21.35-4.63,31.12,2.4,10.27,7.39,14.48,17.75,13.25,30.22,7.11-.93,14.05-1.56,20.87-2.85,3.39-.64,7.31.04,10.07-3.03,14.37-15.94,28.78-31.85,43.14-47.8.93-1.04,2.4-1.77,2.51-3.73-8.35.25-16.24-1.43-23.71-4.89Z"/><path class="cls-2" d="M195.44,556.32c-1.95-1.83-3.94-3.63-5.92-5.43.38.91.92,2.02,1.45,2.56,1.26,1.26,2.82,2.13,4.46,2.87Z"/><path class="cls-1" d="M388.5,362.84c8.11-11.37,12.07-23.98,11.28-38-.09-1.57.12-2.83,1.7-3.76,18.49-10.95,31.84-26.33,39.77-46.49,1.29,12.29,3.79,25.08-.8,36.43-5.33,13.21-3.18,26.36-3.65,39.53-.68,19.11-6.58,35.8-19.93,49.74-15.16,15.84-34.04,19.31-54.62,16.14-23.21-3.57-40.71-17.12-56.35-33.62-1.66-1.76-1.4-2.94.07-4.59,3.31-3.71,6.44-7.57,9.64-11.36-.02,1.37.47,2.53,1.13,3.74,3.36,6.26,8.03,11.25,13.61,15.65,15.12,11.94,32.08,17.01,50.86,12.44,15.4-3.74,26.39-14.1,34.83-27.28,4.11-6.43,7.36-13.21,10.04-21.4-11.73,8.81-23.1,15.56-37.58,12.82Z"/><path class="cls-1" d="M211.76,365.86c3.73,3.98,6.11,9.04,10.19,12.74,1.63,1.48.1,2.42-.64,3.3-18,21.51-39.86,35.21-68.95,35.65-36.91.56-60.42-30.55-61.37-62.47-.33-11.15-.18-22.32-.18-33.48,0-2.22-.06-4.05-2.14-5.67-2.86-2.22-2.83-5.84-3.27-9.13-1.4-10.57-.85-21.14-.34-32.37,2.03,1.37,2.19,3.11,2.8,4.47,7.88,17.85,19.63,32.32,36.69,42.18,1.3.75,2.47,1.32,2.4,3.29-.55,14.41,4.65,26.98,12.63,38.63-13.9.89-26.28-3.18-37.18-12.05-.3.9-.57,1.26-.49,1.5,5.22,14.83,13.16,27.75,25.8,37.52,23.45,18.13,58.78,11.34,77.43-11.94,2.58-3.22,5.46-6.71,5.35-11.38,0,0,.01.22.01.22.43-.33.85-.67,1.28-1Z"/><path class="cls-2" d="M68.53,58.7c.28-.92.57-1.83,2.05-2.29.06,15.71,3.09,30.85,9.24,45.08,14.22,32.95,35.63,59.41,69.61,73.84,3.2,1.36,6.54,2.63,9.94,3.16,3.49.54,3.91,2.25,3.31,5.07-2.8,13.17-7.61,25.39-16.7,35.6-1.97-.85-3.97-1.63-5.91-2.55-24.62-11.61-43.97-28.98-56.95-53-8.56-15.85-15.2-32.53-17.11-50.62-1.09-10.35-1.96-20.71-.69-31.26.93-7.71,2.72-15.28,3.21-23.04Z"/><path class="cls-2" d="M379.66,217.99c-8.19-10-12.87-21.53-15.02-34.2-.49-2.91.23-4.25,3.29-5.35,49.84-17.96,76.91-54.97,87.43-105.5,1.19-5.71.86-11.74,1.25-17.82,1.74.62,1.88,1.82,2.27,2.84-1.93,1.14-.68,2.56-.39,3.93,1.59,7.44,2.94,14.93,3.12,22.56.35,15.14-1.18,30.01-4.64,44.85-7.62,32.72-25.28,58.41-52.65,77.47-7.44,5.18-15.39,9.8-24.66,11.23Z"/><path class="cls-2" d="M215.89,439.08c-5.79-7.14-5.73-14.89-2.05-22.8,2.69-5.78,7.07-10.4,11.59-15.36,5.17,6.23,10.76,11.87,17.8,17.86v-52.76c8.53-5.79,14.93-13.56,20.15-22.09,6.78,8.25,12.91,16.68,21.27,23.09.09,14.6.19,29.21.27,43.81.01,2.14,0,4.28,0,7.52,5.99-4.61,10.91-9.14,14.92-14.49,2.1-2.81,3.27-2.49,5.39-.16,5.41,5.97,10.35,12.09,11.15,20.57.52,5.53-.51,10.53-4.32,14.75-3.51-9.14-10.52-11.57-19.73-11.34-5.27.13-9.2,2.38-13.24,4.9-7.16,4.47-14.68,5.4-22.87,3.54-6.04-1.38-10.47-5.59-15.9-8-10.85-4.8-22.25.25-24.45,10.97Z"/><path class="cls-1" d="M379.66,217.99c9.27-1.43,17.22-6.05,24.66-11.23,27.38-19.06,45.03-44.75,52.65-77.47,3.46-14.84,4.99-29.71,4.64-44.85-.18-7.63-1.52-15.12-3.12-22.56-.29-1.37-1.55-2.79.39-3.93,8.41,13.63,13.54,28.54,15.47,44.29,5.48,44.61-8.24,82.36-41.9,112.46-8.28,7.41-17.88,12.56-28.97,14.81-6.13,1.24-11.45.62-16.15-3.79-2.65-2.49-5.6-4.67-7.68-7.73Z"/><path class="cls-1" d="M68.53,58.7c-.49,7.75-2.28,15.33-3.21,23.04-1.27,10.54-.4,20.9.69,31.26,1.91,18.09,8.54,34.76,17.11,50.62,12.98,24.02,32.33,41.39,56.95,53,1.94.91,3.94,1.7,5.91,2.55-2.56,3.79-6.14,6.49-9.68,9.26-1.95,1.53-4.03,1.97-6.51,1.76-14.34-1.23-26.87-6.91-37.11-16.68-37.72-36-49.9-79.36-35.81-129.67,2.48-8.87,5.75-17.69,11.66-25.13Z"/><path class="cls-1" d="M274.76,297.94c4.48,1.46,7.05,5.44,10.36,8.31,16.01,13.91,34.38,16.9,54.03,11.22,21.34-6.17,40.56-16.49,55.87-33.17,2.3-2.5,3.14-3.7-.67-5.57-6.87-3.38-13.09-7.8-17.91-13.92,2.35-3.81,4.02-8.38,7.21-11.24,3.72-3.33,7.98,1.13,12.16,1.43,13.56.97,23.78-1.17,35.64-8.51.14,4.53-.97,8.56-2.33,12.49-5.73,16.57-15.07,30.78-28.68,41.88-19.52,15.91-40.82,28.86-65.66,34.41-28.97,6.46-50.59-6.11-60.03-37.31Z"/><path class="cls-1" d="M151.82,265.89c-6.87,5.66-13.15,12.15-22.3,14.41-2.73.67-.67,2.28.24,3.22,4.51,4.68,9.89,8.3,15.09,12.12,13.04,9.57,26.78,17.67,42.65,21.87,22.94,6.07,42.43-.26,59.7-15.55,1.34-1.19,2.33-2.89,4.4-3.01-4.76,18.49-20.16,39.67-48.11,37.57-11.07-.83-21.71-3.17-31.7-7.94-19.9-9.49-39.01-20.28-53.99-36.89-11.06-12.26-19.4-26.11-22.49-42.65-.12-.62-.1-1.26-.19-2.48,6.53,3.44,12.66,6.57,19.64,7.67,8.56,1.35,16.88,1.02,25.04-1.92,1.66-.6,2.68-1.07,3.89,1.1,2.4,4.33,5.38,8.34,8.13,12.48Z"/><path class="cls-2" d="M210.46,366.65c.1,4.67-2.78,8.16-5.35,11.38-18.64,23.28-53.97,30.07-77.43,11.94-12.64-9.77-20.57-22.7-25.8-37.52-.08-.24.18-.6.49-1.5,10.9,8.87,23.28,12.94,37.18,12.05,12.98,15.53,29.67,19.91,48.91,15.9,8.49-1.77,15.3-7.02,22-12.25Z"/><path class="cls-2" d="M388.5,362.84c14.48,2.74,25.85-4.02,37.58-12.82-2.67,8.19-5.92,14.97-10.04,21.4-8.44,13.18-19.43,23.53-34.83,27.28-18.79,4.57-35.75-.5-50.86-12.44-5.58-4.41-10.25-9.39-13.61-15.65-.65-1.22-1.15-2.37-1.13-3.74.75-1.22,1.43-.82,2.35-.08,24.92,20.01,48.62,18.68,70.53-3.93Z"/><path class="cls-2" d="M247.55,486.26c-12.46.42-24.93.38-37.37-.39-7.12-.44-12-5.26-16.54-10.2-6.22-6.78-10.44-14.95-15.36-22.63-3.66-5.7-7.13-11.52-10.95-17.7,9.56-1.77,17.9-5.16,26.24-10.11.26,9.17,2.63,17.04,7.65,24.11,5.29,7.44,12.23,11.49,21.44,11.43,4.34,7.07,9.29,13.62,15.78,18.93,2.91,2.38,6.62,3.61,9.1,6.56Z"/><path class="cls-2" d="M303.72,460.53c16.02,1.87,27.39-15.01,28.95-26.88.32-2.42.39-4.88.62-7.89,8.23,4.86,16.77,8.16,26.94,9.74-10.43,15.08-17.61,31.59-30.91,43.86-4.89,4.51-10.74,6.99-17.68,6.82-10.31-.24-20.63-.07-30.95-.08,1.75-1.23,3.43-2.57,5.26-3.66,8.62-5.14,14.56-12.42,17.78-21.92Z"/><path class="cls-1" d="M360.74,526.03c-1.19-1.11.07-1.73.58-2.32,10.81-12.58,16.6-27.51,20.38-43.37.52-2.19,1.07-3.48,3.78-3.44,15.49.24,29.47-4.29,42.3-14.31-1.1,5.56-3.03,10.1-5.1,14.55-6.6,14.16-14.56,27.44-27.56,36.69-10.23,7.28-21.64,11.82-34.44,12.09l.07.12Z"/><path class="cls-1" d="M99.73,463.92c6.72,3.15,12.69,7.72,19.86,10.08,6.74,2.22,13.57,3.13,20.6,3.02,2.08-.03,3.79-.07,4.37,2.71,3.35,16.06,10.72,30.25,20.48,43.3.49.66.92,1.37,1.35,2.08.06.11-.05.32-.08.48-24.79,2.63-58.11-27.89-66.89-61.26.1-.14.21-.28.32-.41Z"/><path class="cls-1" d="M303.72,460.53c-3.22,9.5-9.16,16.78-17.78,21.92-1.83,1.09-3.51,2.43-5.26,3.66-11.04.48-22.09.68-33.14.16-2.48-2.94-6.19-4.18-9.1-6.56-6.49-5.31-11.44-11.85-15.78-18.93,5.92-.64,9.91-4.22,13.4-9.12,7.22,9.38,16.13,15.4,28.19,15.12,11.83-.28,20.76-6.08,28.14-15.74,2.17,5.28,6.34,7.92,11.33,9.49Z"/><path class="cls-2" d="M48.05,340.92c-.61-13.3-10.39-18.1-20.87-21.48-4.54-1.46-5.75-3.26-5.58-7.73.35-9.4.11-18.83.11-29.42,2.08,2.6,3.48,4.31,4.82,6.06,9.67,12.55,22.14,21.38,36.73,27.24,1.89.76,2.54,1.48,2.52,3.42-.12,11.96-.15,23.92-.2,35.88-6.85-3.4-12.15-8.75-17.53-13.98Z"/><path class="cls-2" d="M461.51,353.04c-.11-11.48-.15-22.96-.38-34.43-.04-2.14.98-2.83,2.62-3.58,19.08-8.68,27.14-15.01,40.62-32.17,0,6.11,0,11.26,0,16.41,0,4.66-.25,9.33.01,13.98.19,3.26-1.11,4.59-4.1,5.58-10.59,3.5-19.11,9.34-21.83,21.08-3.68.93-5.17,4.46-7.82,6.62-2.91,2.37-4.88,6.01-9.12,6.51Z"/><path class="cls-1" d="M284.35,367.02c-8.37-6.41-14.5-14.84-21.27-23.09-5.21,8.52-11.62,16.3-20.15,22.09-.29-6.96-.68-13.91-3.29-20.5-.67-1.7-.23-2.64,1.34-3.59,9.85-6,16.98-14.5,22.33-25.14,5.67,10.66,12.83,19.46,22.74,25.73,1.49.95,1.31,1.95.98,3.35-1.67,6.95-2.59,14-2.68,21.16Z"/><path class="cls-1" d="M440.94,404.26c-13.09,18.37-29.56,31.53-53.38,32.92-1.63.1-3.34.18-4.46,1.77-3.34,4.72-6.72,9.41-10.47,14.64,45.64,7.34,70.63-25.07,68.31-49.33Z"/><path class="cls-1" d="M143.31,439.39c-1.13-1.67-2.51-1.88-4.22-1.98-23.42-1.41-40.26-13.23-52.04-33-.44-.74-.49-2.08-1.96-1.5.98,34.94,29.22,55.99,68.35,50.66-3.58-4.97-6.98-9.49-10.13-14.18Z"/><path class="cls-1" d="M48.05,340.92c5.39,5.23,10.68,10.58,17.53,13.98.03,16.15-.02,32.3.15,48.45.03,3.11-.99,3.51-3.77,3.16-10.12-1.26-14.06-5.53-14.03-15.65.04-16.65.08-33.3.12-49.94Z"/><path class="cls-1" d="M461.51,353.04c4.24-.49,6.21-4.14,9.12-6.51,2.65-2.16,4.14-5.69,7.82-6.62.05,18.28.22,36.56.1,54.84-.04,6.12-9.22,13.25-15.35,12.49-2.83-.35-1.63-2.51-1.64-3.84-.12-14.97-.11-29.93-.12-44.9,0-1.82.05-3.65.07-5.47Z"/><path class="cls-1" d="M215.59,439.08c2.2-10.71,13.6-15.77,24.45-10.97,5.43,2.41,9.87,6.63,15.9,8,8.19,1.87,15.71.94,22.87-3.54,4.03-2.52,7.97-4.76,13.24-4.9,9.21-.23,16.22,2.19,19.73,11.34-.69.81-.86,3-2.59.79-4.72-6.05-9.29-7.12-16.84-4.19-3.65,1.42-6.53,3.89-9.35,6.48-12.31,11.32-26.24,11.42-38.79.33-1.87-1.65-3.64-3.43-5.66-4.87-7.52-5.36-14.99-4.26-20.88,2.92-.09.11-.3.27-.37.23-.23-.11-.43-.31-.64-.47-.37-.44-.74-.87-1.1-1.31l.04.14Z"/><path class="cls-1" d="M355.47,475.24c-4.82,8.31-10.72,15.4-17.84,21.44,1.64,14.66-6.1,26.02-13.35,37.5-.76,1.21-2.16,2.57-4.09,2.39,0,0,.12.07.12.07.14.8.28,1.6.43,2.39,22.72-9.1,40.78-41.95,34.73-63.79Z"/><path class="cls-1" d="M212.56,508.07c-3.83.07-6.65-1.38-9.53-2.68-5.96-2.7-10.84-7.03-16.15-10.7-1.62,2.77-1.57,5.83-.77,8.68,2.8,10.04,5.93,19.97,13.35,27.81,1.26,1.33,2.63,2.59,2.25,4.7,1.58,1.48,3.34,2.59,6.05,3.03-2.3-10.86-.09-20.88,4.8-30.84Z"/><path class="cls-2" d="M201.71,535.88c.38-2.11-.99-3.37-2.25-4.7-7.42-7.84-10.55-17.78-13.35-27.81-.8-2.85-.85-5.91.77-8.68-6.04-6-11.09-12.8-15.65-20.02-1.37,26.28,7.63,47.23,30.48,61.21Z"/><path class="cls-2" d="M337.62,496.68c1.64,14.66-6.1,26.02-13.35,37.5-.76,1.2-2.16,2.57-4.09,2.39,2.02-9.87-.77-18.93-5-28.4,8.96-1.19,15.87-6.02,22.44-11.49Z"/><path class="cls-2" d="M320.31,536.64c.14.8.28,1.6.43,2.39-.53.74-1.27.66-1.52-.04-.35-.97.16-1.83,1.09-2.36Z"/><path class="cls-2" d="M211.76,365.86c-.43.33-.85.67-1.28,1,.14-.71.33-1.34,1.28-1Z"/><path class="cls-2" d="M215.55,438.93c.37.44.74.87,1.1,1.31-.37-.44-.74-.87-1.1-1.31Z"/><path class="cls-1" d="M360.67,525.92c-.23.16-.45.32-.68.48,0-.16,0-.31.01-.47.24.03.49.07.73.1,0,0-.07-.12-.07-.12Z"/></g></svg>